<svg version="1.1" id="Layer_1" xmlns="http://www.w3.org/2000/svg" xmlns:xlink="http://www.w3.org/1999/xlink" x="0px" y="0px"
	 width="100%" viewBox="0 0 1024 1024" enable-background="new 0 0 1024 1024" xml:space="preserve">
<path fill="currentColor" opacity="1.000000" stroke="none" 
	d="
M1.000004,501.468628 
	C2.375371,497.456268 3.646581,493.867798 5.145025,490.376892 
	C10.272012,478.432526 18.953520,469.791199 30.127346,463.372284 
	C84.865479,431.927338 139.649689,400.561218 194.257004,368.890350 
	C228.362259,349.110107 269.219360,366.646759 277.714050,405.203217 
	C278.708282,409.715881 279.132721,414.442444 279.139618,419.070892 
	C279.233154,481.887878 279.291840,544.705200 279.173584,607.522034 
	C279.112488,639.992310 253.440430,665.814819 222.073761,665.273926 
	C211.487579,665.091431 201.821793,661.577332 192.762802,656.367920 
	C158.399338,636.606812 124.080841,616.767517 89.742455,596.962708 
	C70.119362,585.645020 50.572136,574.192383 30.836761,563.073853 
	C16.457424,554.972839 6.653645,543.486084 2.504701,527.375488 
	C2.259268,526.422424 1.727035,525.543274 1.164124,524.314819 
	C1.000000,516.645752 1.000000,509.291504 1.000004,501.468628 
z"/>
<path fill="currentColor" opacity="1.000000" stroke="none" 
	d="
M503.468384,1025.000000 
	C500.796906,1024.279541 498.614349,1023.487305 496.387451,1022.849915 
	C481.218353,1018.508484 470.638458,1008.492981 462.969604,995.225037 
	C431.625427,940.995972 400.440735,886.674683 369.151550,832.413879 
	C351.100494,801.110229 362.559113,765.521973 395.402832,751.172302 
	C402.866058,747.911560 410.837799,746.935913 418.820068,746.921448 
	C481.645996,746.807373 544.472473,746.756836 607.298218,746.905823 
	C640.275330,746.984009 665.670471,772.012451 665.182068,803.650513 
	C665.030396,813.476257 662.253235,822.713562 657.347473,831.223877 
	C625.317871,886.786560 593.266846,942.336853 561.168823,997.859985 
	C552.741089,1012.438354 539.689331,1020.686462 523.313721,1024.819824 
	C516.645630,1025.000000 510.291199,1025.000000 503.468384,1025.000000 
z"/>
<path fill="currentColor" opacity="1.000000" stroke="none" 
	d="
M521.531616,1.000000 
	C542.350769,5.331532 555.667358,17.823875 565.767334,35.741810 
	C595.374207,88.266296 625.319885,140.614029 656.105225,192.453583 
	C670.036072,215.911758 666.852539,242.050781 651.605957,259.724457 
	C639.969421,273.213348 624.681458,279.025330 607.255310,279.064117 
	C543.439697,279.206238 479.622437,279.338135 415.808105,279.018494 
	C375.209137,278.815125 348.522095,235.615707 366.491333,199.074997 
	C377.220306,177.257462 390.463440,156.774002 402.581421,135.694138 
	C422.669647,100.749542 442.990601,65.938103 462.949005,30.919828 
	C471.225433,16.398306 482.909210,6.644094 499.080872,2.317228 
	C499.878662,2.103770 500.625183,1.698779 501.697815,1.191488 
	C508.354401,1.000000 514.708801,1.000000 521.531616,1.000000 
z"/>
<path fill="currentColor" opacity="1.000000" stroke="none" 
	d="
M1025.000000,522.531738 
	C1022.323608,531.587769 1019.426086,539.970398 1013.770813,547.295227 
	C1007.244385,555.748474 998.478455,561.016479 989.521179,566.174927 
	C936.694031,596.597473 883.901550,627.080261 831.016602,657.401917 
	C795.623840,677.694458 752.868164,656.200928 747.475098,615.632690 
	C747.033386,612.310364 746.808472,609.015869 746.808472,605.684021 
	C746.809448,542.865967 746.805481,480.047882 746.808716,417.229828 
	C746.810974,373.527863 792.876953,346.691956 830.746765,368.469666 
	C885.037903,399.690765 939.083801,431.341705 993.554138,462.245667 
	C1010.203674,471.691833 1020.702820,484.799500 1024.890259,503.651550 
	C1025.000000,510.021149 1025.000000,516.042297 1025.000000,522.531738 
z"/>
<path fill="currentColor" opacity="1.000000" stroke="none" 
	d="
M498.522400,348.296112 
	C532.586426,345.560791 564.339600,351.973969 593.665588,368.676208 
	C630.793884,389.822113 657.283325,420.485016 669.903931,461.376801 
	C688.019104,520.071533 677.252502,574.093994 638.238220,621.579224 
	C612.589294,652.797180 578.400146,669.731506 538.624939,675.404907 
	C494.290649,681.728638 453.038452,673.409119 415.990417,647.740295 
	C386.002960,626.963562 366.367920,598.393250 355.790253,563.636292 
	C350.539642,546.383301 347.573425,528.677124 347.655640,510.561951 
	C347.825928,473.052338 359.836426,439.664429 383.148407,410.416718 
	C409.234070,377.689117 443.044708,357.639313 484.208710,350.078430 
	C488.777771,349.239227 493.446228,348.941406 498.522400,348.296112 
z"/>
</svg>