<svg version="1.1" id="Layer_1" xmlns="http://www.w3.org/2000/svg" xmlns:xlink="http://www.w3.org/1999/xlink" x="0px" y="0px"
	 width="100%" viewBox="0 0 1080 360" enable-background="new 0 0 1080 360" xml:space="preserve">
<path fill="currentColor" opacity="1.000000" stroke="none" 
	d="
M0.999998,177.437500 
	C4.534794,173.889313 7.723263,170.218567 11.671764,167.776886 
	C21.978456,161.403442 32.596291,155.530182 43.131161,149.529648 
	C52.192574,144.368362 61.756790,149.159470 62.118004,159.583603 
	C62.602047,173.552628 62.605415,187.564072 62.115322,201.532745 
	C61.742378,212.162399 52.124901,217.241089 42.806305,212.045212 
	C31.204845,205.576447 19.702227,198.911285 8.405583,191.928650 
	C5.630718,190.213470 3.821074,186.936722 1.283840,184.188934 
	C1.000000,181.958328 1.000000,179.916672 0.999998,177.437500 
z"/>
<path fill="currentColor" opacity="1.000000" stroke="none" 
	d="
M364.866913,108.030106 
	C373.951172,112.456329 380.395172,119.240860 385.016479,126.926483 
	C391.527405,121.267540 397.211304,115.121574 404.002594,110.661949 
	C421.050537,99.467072 439.336212,99.583412 457.927551,106.750999 
	C479.273315,114.980507 489.339905,131.889465 490.171021,153.426559 
	C491.338135,183.670471 490.465942,213.993103 490.465942,244.656281 
	C476.782715,244.656281 462.726959,244.656281 447.862488,244.656281 
	C447.862488,242.708389 447.862549,240.784744 447.862488,238.861084 
	C447.861450,215.866333 448.039612,192.869186 447.729584,169.878601 
	C447.654877,164.338394 446.875244,158.452515 444.826660,153.367386 
	C440.444824,142.490311 428.589691,137.549133 415.015198,139.870270 
	C402.989014,141.926651 394.644287,150.349579 394.260803,162.560501 
	C393.607452,183.364655 393.743500,204.193909 393.577332,225.012848 
	C393.525696,231.483566 393.569336,237.955048 393.569336,244.723999 
	C379.087189,244.723999 365.039154,244.723999 350.317505,244.723999 
	C350.317505,242.600082 350.321869,240.647232 350.316864,238.694412 
	C350.253326,214.035004 350.406830,189.372360 350.043335,164.717361 
	C349.819641,149.546997 340.369202,140.453140 324.796692,139.379120 
	C309.902130,138.351837 299.401276,146.474197 296.814148,161.217148 
	C296.242126,164.476837 296.034210,167.837570 296.024597,171.152832 
	C295.958405,193.980743 295.989349,216.808960 295.989075,239.637070 
	C295.989044,241.264359 295.989075,242.891632 295.989075,244.770844 
	C281.567932,244.770844 267.486877,244.770844 253.105896,244.770844 
	C253.105896,197.819427 253.105896,150.926605 253.105896,103.703362 
	C267.215637,103.703362 281.288605,103.703362 295.938721,103.703362 
	C295.938721,108.907951 295.938721,114.105560 295.938721,120.297592 
	C316.552338,99.757446 339.472534,97.514923 364.866913,108.030106 
z"/>
<path fill="currentColor" opacity="1.000000" stroke="none" 
	d="
M869.444336,243.707245 
	C836.516968,234.275497 816.913940,206.754562 817.807556,172.089798 
	C818.402832,148.998840 826.312012,129.259949 845.145081,115.398338 
	C863.813599,101.657799 885.206726,98.359436 907.795349,102.740753 
	C935.198547,108.055901 954.105469,123.780540 961.564758,150.718750 
	C968.965393,177.444733 965.641418,202.957977 946.334900,224.519440 
	C934.191772,238.080765 918.315857,244.782867 900.512268,245.822083 
	C890.360291,246.414642 880.066528,244.579178 869.444336,243.707245 
M887.121948,208.736343 
	C900.659119,210.003662 911.673035,204.664261 916.586182,193.819351 
	C922.196289,181.436157 922.512695,168.539230 917.605469,155.967743 
	C909.829529,136.047241 882.607361,132.292755 869.404846,149.106384 
	C861.140015,159.631699 860.650146,171.804504 863.016663,184.228821 
	C865.485535,197.191025 873.254456,205.491165 887.121948,208.736343 
z"/>
<path fill="currentColor" opacity="1.000000" stroke="none" 
	d="
M597.864014,122.000572 
	C597.863953,115.544258 597.863953,109.587814 597.863953,103.399734 
	C612.377869,103.399734 626.454895,103.399734 640.877075,103.399734 
	C640.877075,110.754234 640.877075,118.011566 640.877075,127.043327 
	C652.565125,111.169594 666.419189,101.904282 685.535522,101.963509 
	C685.535522,117.290375 685.535522,132.220383 685.535522,147.979126 
	C680.498352,147.979126 675.564270,147.792572 670.652222,148.040863 
	C667.020691,148.224426 663.339905,148.659332 659.816589,149.530472 
	C648.746704,152.267456 643.167786,159.913788 641.928955,170.872650 
	C641.332153,176.152252 641.184937,181.503250 641.160889,186.823380 
	C641.074219,205.978973 641.126770,225.135208 641.126770,244.646301 
	C626.840698,244.646301 612.627930,244.646301 597.864136,244.646301 
	C597.864136,203.981995 597.864136,163.241211 597.864014,122.000572 
z"/>
<path fill="currentColor" opacity="1.000000" stroke="none" 
	d="
M726.274902,105.623558 
	C736.474976,109.845901 743.795166,116.965485 750.570679,126.021042 
	C750.570679,118.073708 750.570679,110.886093 750.570679,103.348709 
	C765.182373,103.348709 779.393677,103.348709 793.886841,103.348709 
	C793.886841,150.292908 793.886841,197.308273 793.886841,244.581116 
	C779.696533,244.581116 765.622314,244.581116 750.899536,244.581116 
	C750.899536,242.795166 750.899475,241.035645 750.899475,239.276123 
	C750.899475,220.126328 750.966187,200.976135 750.850037,181.827042 
	C750.822815,177.349945 750.597717,172.793457 749.734741,168.417236 
	C747.211060,155.619690 738.753540,148.787460 724.609314,148.015594 
	C718.674988,147.691742 712.708252,147.961685 706.537231,147.961685 
	C706.537231,132.064056 706.537231,117.157112 706.537231,100.776543 
	C713.307251,102.398041 719.626892,103.911652 726.274902,105.623558 
z"/>
<path fill="currentColor" opacity="1.000000" stroke="none" 
	d="
M1065.165894,186.000092 
	C1065.165894,205.786926 1065.165894,225.073776 1065.165894,244.597809 
	C1050.647217,244.597809 1036.567261,244.597809 1022.121033,244.597809 
	C1022.045654,242.906494 1021.912903,241.298767 1021.911682,239.690933 
	C1021.897339,220.363129 1021.970154,201.034912 1021.851929,181.707825 
	C1021.824524,177.228821 1021.586914,172.668961 1020.712585,168.292831 
	C1018.203613,155.734940 1009.786438,148.868774 995.962769,148.038162 
	C990.008667,147.680405 984.015198,147.978241 977.673462,147.978241 
	C977.673462,132.153076 977.673462,117.122757 977.673462,101.739563 
	C996.462402,101.845619 1010.294067,110.709396 1021.709412,126.259895 
	C1021.709412,117.964546 1021.709412,110.674095 1021.709412,103.200500 
	C1036.396606,103.200500 1050.489990,103.200500 1065.165894,103.200500 
	C1065.165894,130.669983 1065.165894,158.085037 1065.165894,186.000092 
z"/>
<path fill="currentColor" opacity="1.000000" stroke="none" 
	d="
M565.966064,196.000000 
	C565.966064,212.468292 565.966064,228.436569 565.966064,244.715424 
	C551.596863,244.715424 537.386414,244.715424 522.927368,244.715424 
	C522.927368,197.727951 522.927368,150.851425 522.927368,103.624489 
	C537.202087,103.624489 551.259460,103.624489 565.966064,103.624489 
	C565.966064,134.358841 565.966064,164.929428 565.966064,196.000000 
z"/>
<path fill="currentColor" opacity="1.000000" stroke="none" 
	d="
M127.658226,147.105377 
	C139.288788,152.714615 146.862900,161.150543 149.383545,173.702087 
	C153.562561,194.511398 140.414215,213.226700 119.194702,216.233337 
	C89.650230,220.419571 72.298981,194.027115 79.149017,170.012848 
	C84.868675,149.961319 106.447983,139.932983 127.658226,147.105377 
z"/>
<path fill="currentColor" opacity="1.000000" stroke="none" 
	d="
M82.456436,109.776489 
	C89.268166,98.104988 95.803780,86.728279 102.464195,75.425110 
	C108.500198,65.181595 119.422646,65.061752 125.396713,75.256897 
	C132.108444,86.710938 138.703384,98.238350 145.095963,109.872932 
	C150.304459,119.352470 145.496307,128.563568 134.701187,128.982422 
	C120.907722,129.517624 107.065758,129.486023 93.268349,129.011246 
	C82.955589,128.656372 78.726601,120.847542 82.456436,109.776489 
z"/>
<path fill="currentColor" opacity="1.000000" stroke="none" 
	d="
M110.000237,232.746643 
	C118.496284,232.749634 126.494110,232.648605 134.488037,232.781693 
	C144.731491,232.952225 150.506027,241.730835 145.706573,250.676041 
	C138.873474,263.411560 131.578384,275.922455 123.952507,288.201324 
	C118.731148,296.608490 107.982513,295.471588 102.412544,286.124695 
	C95.692337,274.847504 89.288300,263.381531 82.788376,251.973938 
	C82.054794,250.686478 81.373840,249.299164 81.029976,247.871109 
	C79.117973,239.930435 84.298607,233.063461 92.509987,232.794601 
	C98.167877,232.609360 103.836464,232.751083 110.000237,232.746643 
z"/>
<path fill="currentColor" opacity="1.000000" stroke="none" 
	d="
M193.569763,154.437012 
	C202.764938,159.808273 211.679703,164.933929 220.547913,170.138931 
	C228.629837,174.882401 229.294952,185.875839 221.353455,190.785172 
	C208.939438,198.459366 196.307251,205.819717 183.454636,212.731232 
	C175.232773,217.152542 166.084183,211.217758 165.955780,201.759033 
	C165.763824,187.617065 165.758072,173.468872 165.942657,159.326843 
	C166.065460,149.918427 175.334381,144.602600 183.694351,148.928162 
	C186.932693,150.603729 190.080185,152.454834 193.569763,154.437012 
z"/>
<path fill="currentColor" opacity="1.000000" stroke="none" 
	d="
M568.594666,73.322655 
	C561.601990,89.974007 538.922668,92.858528 526.417664,82.203629 
	C518.943237,75.835037 517.033020,67.522461 519.574951,58.222790 
	C521.826233,49.986301 530.831360,42.849365 539.805481,41.834373 
	C552.467224,40.402309 561.818726,44.769257 567.366333,54.606785 
	C570.708069,60.532597 570.563782,66.672066 568.594666,73.322655 
z"/>
</svg>