<svg version="1.1" id="Layer_1" xmlns="http://www.w3.org/2000/svg" xmlns:xlink="http://www.w3.org/1999/xlink" x="0px" y="0px"
	 width="100%" viewBox="0 0 1080 360" enable-background="new 0 0 1080 360" xml:space="preserve">
<path fill="currentColor" opacity="1.000000" stroke="none" 
	d="
M144.900818,258.753479 
	C144.892502,227.113663 144.975220,195.952957 144.848709,164.793106 
	C144.801346,153.129120 142.281784,142.287003 132.346451,134.632919 
	C112.079155,119.019173 81.630318,130.309433 77.004250,155.246399 
	C76.220284,159.472412 75.966560,163.849182 75.954636,168.157639 
	C75.868874,199.144806 75.908730,230.132309 75.908730,261.559204 
	C57.755047,261.559204 39.728992,261.559204 21.376459,261.559204 
	C21.376459,202.036438 21.376459,142.506790 21.376459,82.662613 
	C39.510742,82.662613 57.409405,82.662613 75.765503,82.662613 
	C75.765503,89.423164 75.765503,95.993889 75.765503,102.564613 
	C76.046806,102.917480 76.328102,103.270348 76.609406,103.623215 
	C92.493523,85.576759 112.668503,78.934883 135.690735,81.009453 
	C158.533737,83.067863 177.579224,92.185646 189.051102,113.148758 
	C194.657104,107.454597 199.287003,101.795158 204.843140,97.273941 
	C228.970856,77.640419 255.478851,76.201439 283.533173,87.715126 
	C304.257812,96.220665 315.694336,112.232643 320.145508,133.499252 
	C322.006744,142.391632 323.186249,151.585022 323.292633,160.657776 
	C323.665863,192.480286 323.364746,224.310211 323.521210,256.136322 
	C323.542908,260.549866 322.574036,262.225922 317.739166,262.114441 
	C303.083252,261.776367 288.412201,261.845367 273.752380,262.083801 
	C269.580933,262.151611 268.324677,260.905731 268.345764,256.744629 
	C268.495148,227.251358 268.605347,197.755051 268.291534,168.264359 
	C268.216492,161.212570 267.523224,153.832581 265.298676,147.213760 
	C261.591003,136.182205 252.698792,130.441727 241.345993,128.661285 
	C220.415924,125.378860 201.490738,135.193268 200.128113,159.762939 
	C199.897781,163.915909 199.606232,168.073608 199.599319,172.229538 
	C199.552780,200.223801 199.575378,228.218155 199.575592,256.212494 
	C199.575607,257.992798 199.575592,259.773102 199.575592,261.991211 
	C185.434509,261.991211 171.968277,261.991638 158.502045,261.990936 
	C155.002762,261.990753 151.481644,262.205414 148.016830,261.858856 
	C146.904373,261.747559 145.940536,260.150330 144.900818,258.753479 
z"/>
<path fill="currentColor" opacity="1.000000" stroke="none" 
	d="
M761.155762,122.208344 
	C785.680359,80.969643 840.892395,71.167831 879.659180,87.332642 
	C915.187866,102.147247 932.039795,129.844910 933.953064,167.368484 
	C935.296021,193.708511 928.435974,217.488434 909.885071,237.032547 
	C896.714844,250.907883 880.336548,258.994293 861.664429,262.277100 
	C836.226624,266.749359 811.943115,263.526611 789.512451,250.023102 
	C768.672058,237.476959 756.077087,218.843369 750.890869,195.400391 
	C745.272278,170.003052 747.976501,145.478607 761.155762,122.208344 
M829.980774,129.239304 
	C819.816528,132.713882 812.383911,139.301270 808.295288,149.219818 
	C802.609558,163.012802 802.447510,177.221344 806.972107,191.281509 
	C811.841248,206.412659 825.520264,216.295975 841.109619,216.782578 
	C855.951721,217.245850 868.356506,208.887115 874.694275,193.835236 
	C878.815063,184.048538 878.833130,173.675659 877.861633,163.366257 
	C875.399048,137.233688 854.487122,122.520569 829.980774,129.239304 
z"/>
<path fill="currentColor" opacity="1.000000" stroke="none" 
	d="
M568.786926,114.000069 
	C568.786926,122.322151 568.786926,130.144226 568.786926,138.794876 
	C566.390564,138.794876 564.146240,138.697571 561.912842,138.812637 
	C554.450745,139.197159 546.879639,138.988052 539.555847,140.224304 
	C522.761414,143.059204 513.447327,153.510849 512.920593,171.303085 
	C512.201233,195.598236 512.560120,219.925415 512.467163,244.238907 
	C512.445007,250.037796 512.463867,255.836853 512.463867,261.811096 
	C493.978973,261.811096 476.026611,261.811096 457.738770,261.811096 
	C457.738770,202.271286 457.738770,142.731461 457.738770,82.785736 
	C475.601166,82.785736 493.644196,82.785736 512.391663,82.785736 
	C512.391663,91.988403 512.391663,101.311714 512.391663,110.635025 
	C526.776062,92.107651 544.567688,81.184120 568.786926,80.404785 
	C568.786926,91.679604 568.786926,102.589836 568.786926,114.000069 
z"/>
<path fill="currentColor" opacity="1.000000" stroke="none" 
	d="
M652.100037,146.815994 
	C643.939026,140.880402 634.926575,139.004150 625.443542,138.830765 
	C619.639099,138.724625 613.831177,138.811157 607.690918,138.811157 
	C607.690918,119.430923 607.690918,100.504128 607.690918,80.718513 
	C631.264893,80.950424 648.946228,92.060020 663.287354,111.811165 
	C663.287354,101.522728 663.287354,92.362961 663.287354,82.880424 
	C681.785889,82.880424 699.692993,82.880424 717.927246,82.880424 
	C717.927246,142.191452 717.927246,201.585907 717.927246,261.274261 
	C700.020081,261.274261 682.115967,261.274261 663.688293,261.274261 
	C663.604675,259.373779 663.460327,257.606964 663.459290,255.840073 
	C663.444092,230.341248 663.605774,204.840775 663.337708,179.344772 
	C663.270203,172.923828 662.694458,166.245712 660.767090,160.190338 
	C659.240173,155.393265 655.288818,151.367874 652.100037,146.815994 
z"/>
<path fill="currentColor" opacity="1.000000" stroke="none" 
	d="
M1061.007812,173.000000 
	C1061.007812,202.641296 1061.007812,231.782608 1061.007812,261.244019 
	C1042.721924,261.244019 1024.664673,261.244019 1006.115479,261.244019 
	C1006.115479,259.186157 1006.115540,257.403931 1006.115479,255.621674 
	C1006.115173,229.968506 1006.128967,204.315308 1006.097351,178.662170 
	C1006.093262,175.336716 1006.105408,171.979462 1005.684021,168.691513 
	C1003.095520,148.494583 991.646606,140.813431 971.240295,138.982574 
	C964.484985,138.376480 957.629578,138.887024 950.456665,138.887024 
	C950.456665,119.379822 950.456665,100.346764 950.456665,80.637276 
	C974.113708,81.116959 991.754211,92.135422 1005.773499,111.574364 
	C1005.773499,101.739288 1005.773499,92.584129 1005.773499,82.993195 
	C1024.326294,82.993195 1042.354858,82.993195 1061.007812,82.993195 
	C1061.007812,112.705658 1061.007812,142.602829 1061.007812,173.000000 
z"/>
<path fill="currentColor" opacity="1.000000" stroke="none" 
	d="
M412.898254,261.997009 
	C395.939209,261.997131 379.469299,261.997131 362.326782,261.997131 
	C362.326782,259.852966 362.326813,258.074768 362.326813,256.296570 
	C362.326324,200.143585 362.374725,143.990479 362.230377,87.837852 
	C362.219116,83.449280 363.384491,82.100380 367.821350,82.178787 
	C382.479858,82.437843 397.145813,82.268997 411.808899,82.286736 
	C413.432922,82.288696 415.056763,82.434296 416.966827,82.527184 
	C417.049652,84.370911 417.172546,85.832718 417.172760,87.294548 
	C417.182037,144.114044 417.160522,200.933563 417.235382,257.752960 
	C417.239258,260.688568 417.064240,262.738281 412.898254,261.997009 
z"/>
<path fill="currentColor" opacity="1.000000" stroke="none" 
	d="
M358.088440,41.625443 
	C353.565704,22.302532 366.778595,9.364655 377.615631,5.953379 
	C395.928314,0.188899 413.184570,6.819262 420.156006,22.755260 
	C424.729095,33.208908 422.921539,46.588722 412.689026,55.439381 
	C396.249176,69.659096 365.376160,64.974220 358.088440,41.625443 
z"/>
</svg>